<?xml version="1.0" standalone="no"?>
<!DOCTYPE svg PUBLIC "-//W3C//DTD SVG 20010904//EN"
 "http://www.w3.org/TR/2001/REC-SVG-20010904/DTD/svg10.dtd">
<svg version="1.0" xmlns="http://www.w3.org/2000/svg"
 width="7381.000000pt" height="7078.000000pt" viewBox="0 0 7381.000000 7078.000000"
 preserveAspectRatio="xMidYMid meet">

<g transform="translate(0.000000,7078.000000) scale(0.100000,-0.100000)"
fill="#002d5b" stroke="none">
<path d="M39850 70774 c-19 -2 -78 -9 -130 -14 -447 -49 -911 -244 -1280 -538
-109 -86 -282 -260 -377 -377 -99 -122 -233 -328 -293 -453 -48 -97 -57 -110
-75 -104 -36 12 -12679 14 -12783 2 -133 -16 -221 -43 -347 -105 -182 -89
-321 -215 -428 -386 -28 -46 -154 -334 -330 -754 -3432 -8199 -15610 -37303
-15635 -37364 -57 -138 -75 -251 -69 -421 4 -112 11 -165 30 -235 104 -371
380 -644 757 -747 l85 -23 7005 0 7005 0 96 27 c297 82 545 281 671 538 20 41
424 1061 898 2265 474 1205 866 2198 871 2208 9 16 297 17 5886 15 l5876 -3
857 -2235 c470 -1230 869 -2258 884 -2285 159 -275 420 -461 729 -520 70 -13
828 -15 6653 -15 l6574 0 46 -92 c267 -536 750 -981 1304 -1203 337 -135 668
-194 1034 -182 372 12 689 90 1021 252 426 208 761 504 1025 905 131 200 267
516 329 765 61 244 87 593 62 840 -70 698 -407 1311 -966 1755 -351 278 -802
463 -1270 521 -144 17 -445 15 -595 -5 -399 -53 -772 -192 -1092 -407 -348
-234 -666 -593 -845 -953 l-48 -96 -6164 2 -6164 3 -848 2215 c-467 1218 -863
2242 -880 2275 -162 311 -478 521 -837 555 -151 14 -13242 14 -13381 0 -256
-27 -487 -141 -662 -327 -81 -86 -160 -205 -195 -293 -15 -36 -412 -1046 -884
-2245 l-857 -2180 -5692 -3 c-3130 -1 -5691 1 -5691 5 0 5 3373 8071 7497
17925 l7497 17918 5975 2 c3287 2 5983 7 5992 11 14 7 29 -15 84 -120 253
-486 646 -872 1130 -1108 181 -89 304 -135 479 -180 397 -101 757 -110 1153
-29 904 185 1657 880 1911 1764 76 262 97 419 97 710 0 146 -5 269 -13 325
-61 408 -192 753 -406 1073 -408 609 -1030 1000 -1761 1108 -97 14 -444 26
-515 18z m325 -1689 c346 -61 616 -329 682 -680 20 -106 13 -282 -17 -385 -46
-160 -157 -329 -285 -433 -73 -59 -236 -139 -326 -161 -107 -26 -240 -31 -347
-12 -192 33 -342 115 -481 262 -68 72 -91 105 -136 198 -31 64 -61 145 -72
191 -21 95 -23 271 -4 360 96 448 531 739 986 660z m15297 -37961 c191 -44
372 -158 484 -307 105 -140 161 -294 171 -469 13 -227 -53 -429 -196 -597 -72
-85 -91 -102 -178 -161 -91 -61 -195 -104 -302 -125 -115 -24 -307 -16 -406
15 -276 88 -485 291 -571 555 -24 74 -26 93 -26 260 0 158 3 189 22 250 91
287 320 504 608 575 101 24 295 26 394 4z"/>
<path d="M53910 69094 c-36 -2 -166 -8 -290 -14 -2355 -114 -4694 -727 -6815
-1788 -1407 -703 -2693 -1584 -3895 -2670 -251 -227 -945 -920 -1172 -1172
-466 -516 -902 -1057 -1289 -1600 -2434 -3412 -3532 -7572 -3104 -11759 443
-4325 2515 -8323 5811 -11207 2900 -2538 6537 -4022 10379 -4234 701 -38 1208
-38 1920 0 2719 148 5365 943 7724 2322 1758 1028 3353 2390 4648 3970 1207
1472 2156 3117 2818 4883 880 2349 1234 4857 1040 7380 -212 2751 -1094 5428
-2558 7768 -947 1511 -2096 2842 -3472 4021 -214 183 -604 494 -855 682 -2223
1661 -4773 2749 -7500 3198 -603 100 -1172 162 -1900 207 -164 10 -1348 20
-1490 13z m-1897 -1427 c-1729 -1295 -3292 -3067 -4433 -5030 -71 -122 -133
-228 -137 -236 -7 -11 -25 -10 -108 5 -142 26 -390 24 -545 -4 -295 -54 -547
-159 -793 -332 -128 -90 -345 -310 -422 -428 -57 -87 -62 -92 -89 -87 -110 20
-1138 349 -1631 522 -437 153 -1241 459 -1329 505 l-25 13 137 150 c2289 2502
5305 4214 8617 4895 253 52 857 158 908 159 22 1 -6 -25 -150 -132z m4979 108
c1956 -305 3837 -973 5572 -1980 1001 -580 1981 -1306 2852 -2111 210 -194
740 -727 928 -933 l158 -175 -53 -24 c-834 -374 -2102 -850 -2959 -1111 -23
-7 -28 -2 -60 56 -101 183 -313 421 -495 556 -242 179 -537 303 -840 353 -138
22 -334 28 -453 12 l-103 -14 -71 126 c-331 579 -770 1244 -1188 1800 -755
1004 -1611 1921 -2535 2715 -230 197 -543 450 -760 615 -170 128 -184 140
-168 140 6 0 85 -11 175 -25z m-3062 -3273 l0 -3108 -92 -28 c-245 -73 -515
-248 -725 -470 -138 -146 -286 -366 -333 -496 -56 -154 -47 -140 -95 -140 -48
0 -558 42 -805 65 -700 68 -1373 154 -2077 265 -278 44 -732 122 -789 135 -19
4 -22 16 -33 121 -32 318 -246 745 -490 980 l-74 72 123 213 c1197 2077 2823
3830 4715 5084 191 127 657 415 671 415 2 0 4 -1399 4 -3108z m1277 3026
c1273 -753 2520 -1815 3564 -3034 637 -742 1259 -1628 1739 -2476 l38 -66 -64
-51 c-130 -104 -298 -333 -398 -541 -101 -211 -171 -466 -185 -680 l-6 -94
-105 -18 c-1004 -170 -2136 -294 -3220 -353 -151 -8 -278 -15 -282 -15 -4 0
-15 25 -24 56 -130 448 -633 957 -1086 1101 l-118 37 0 3108 c0 1709 2 3108 4
3108 3 0 67 -37 143 -82z m-12737 -6147 c830 -323 1693 -615 2666 -900 l71
-21 7 -88 c38 -487 301 -1006 652 -1289 l92 -73 -38 -118 c-468 -1435 -813
-3223 -945 -4892 -27 -351 -21 -317 -62 -325 -64 -12 -207 -62 -293 -103 -443
-211 -798 -604 -941 -1041 l-33 -101 -2618 0 -2618 0 0 68 c0 37 5 150 10 252
139 2562 862 4984 2147 7190 321 551 767 1217 1109 1656 l63 82 213 -90 c117
-49 350 -142 518 -207z m24909 131 c1710 -2275 2777 -4934 3105 -7742 46 -391
81 -826 92 -1152 l7 -188 -2620 0 -2620 0 -18 63 c-65 235 -209 470 -424 691
-220 226 -488 392 -761 471 -52 15 -96 28 -97 29 -1 1 -9 92 -18 202 -136
1757 -443 3386 -927 4916 l-82 259 102 95 c172 161 287 318 387 526 71 148
118 292 150 458 14 74 28 145 31 157 3 18 22 28 107 54 1058 324 2324 804
3262 1238 105 48 194 86 198 83 4 -2 61 -74 126 -160z m-20034 -255 c297 -98
514 -372 532 -674 14 -240 -63 -441 -232 -609 -66 -66 -99 -90 -176 -128 -137
-67 -228 -89 -374 -90 -136 0 -208 15 -320 69 -197 94 -330 257 -401 490 -23
76 -27 108 -28 210 0 140 16 209 75 332 106 221 299 373 540 423 24 5 103 8
174 6 108 -3 144 -7 210 -29z m14640 13 c196 -50 354 -165 460 -334 78 -125
125 -275 125 -395 0 -71 -37 -254 -66 -326 -83 -205 -273 -367 -505 -431 -90
-25 -318 -25 -409 0 -270 74 -472 281 -541 557 -18 70 -21 103 -17 209 7 181
54 314 161 457 93 125 284 238 458 272 85 17 250 12 334 -9z m-7305 -936 c141
-31 304 -137 407 -264 117 -144 173 -305 173 -493 0 -159 -37 -284 -121 -413
-115 -175 -276 -288 -473 -330 -141 -31 -357 -15 -475 33 -70 29 -200 124
-263 192 -78 85 -118 157 -152 276 -50 176 -59 246 -46 341 47 354 323 632
670 674 79 10 193 3 280 -16z m-5575 -773 c1053 -184 2118 -319 3189 -406 170
-14 321 -25 336 -25 26 0 29 -4 55 -102 52 -191 120 -339 233 -509 223 -334
580 -616 902 -715 l105 -32 3 -2054 2 -2053 -92 -29 c-252 -76 -553 -271 -746
-482 -157 -171 -292 -398 -367 -616 l-37 -108 -2717 0 -2716 0 -29 101 c-48
169 -165 372 -319 556 -200 238 -468 430 -722 518 -44 16 -84 31 -88 35 -5 4
1 128 13 276 121 1546 383 3002 786 4364 30 102 66 220 80 262 l25 76 117 1
c262 0 525 57 774 166 344 151 660 434 848 758 30 52 50 75 60 72 8 -2 146
-27 305 -54z m11125 -124 c98 -145 275 -329 430 -446 287 -216 648 -348 1012
-370 70 -4 158 -4 195 0 132 15 109 44 196 -243 437 -1447 719 -3022 832
-4639 l7 -97 -94 -31 c-237 -79 -537 -296 -732 -529 -138 -166 -256 -377 -312
-559 l-29 -93 -2718 3 -2719 2 -32 105 c-101 328 -397 698 -731 913 -109 69
-260 142 -373 177 l-102 33 2 2056 3 2056 110 36 c403 132 782 471 1018 909
44 83 80 176 111 292 l16 56 102 6 c57 3 225 13 373 21 1011 57 2215 191 3130
349 138 24 255 44 260 44 6 1 26 -22 45 -51z m-14632 -6823 c102 -20 278 -106
360 -176 115 -98 182 -203 228 -355 36 -119 39 -316 6 -436 -58 -213 -202
-379 -417 -483 -122 -59 -187 -74 -321 -74 -280 0 -513 130 -653 363 -94 157
-126 275 -118 437 6 124 30 207 94 332 151 294 495 458 821 392z m9036 2 c195
-38 400 -174 511 -341 123 -186 150 -481 66 -706 -70 -185 -258 -361 -469
-440 -77 -29 -101 -33 -218 -37 -111 -4 -144 -1 -215 17 -162 41 -306 129
-400 245 -58 72 -143 237 -164 319 -79 317 67 673 343 837 182 107 358 141
546 106z m9040 0 c233 -45 455 -210 551 -411 56 -116 76 -211 76 -350 1 -217
-57 -366 -199 -517 -104 -110 -258 -201 -397 -234 -78 -18 -251 -18 -340 1
-88 18 -232 89 -310 152 -119 96 -226 266 -265 419 -70 272 37 594 257 777
100 82 257 153 378 170 68 9 178 6 249 -7z m-19998 -1428 c42 -125 147 -328
232 -447 229 -321 597 -589 946 -688 l95 -26 5 -61 c3 -34 17 -196 31 -361
139 -1645 450 -3248 919 -4735 l53 -168 -68 -51 c-88 -68 -239 -227 -313 -330
-129 -181 -231 -389 -290 -595 -31 -106 -66 -301 -66 -366 0 -90 -7 -107 -54
-119 -22 -5 -162 -47 -311 -91 -1016 -306 -2064 -677 -2924 -1035 -101 -42
-187 -73 -190 -68 -3 5 -54 72 -112 148 -1095 1445 -1959 3119 -2499 4838
-415 1325 -664 2744 -716 4080 l-7 177 2618 -2 2618 -3 33 -97z m9038 15 c166
-509 612 -962 1099 -1118 l117 -38 0 -2053 0 -2052 -102 -32 c-126 -39 -301
-128 -428 -218 -105 -74 -291 -249 -374 -351 -158 -195 -278 -423 -341 -653
l-27 -97 -42 -5 c-22 -3 -108 -11 -191 -16 -1035 -75 -2383 -247 -3480 -445
-77 -14 -145 -25 -151 -25 -6 0 -35 41 -64 91 -109 183 -304 398 -481 529
-323 240 -709 371 -1101 374 l-148 1 -34 110 c-386 1229 -672 2672 -810 4080
-24 242 -66 737 -66 776 0 13 22 25 83 44 154 51 342 160 497 290 252 210 481
532 555 780 14 50 28 96 30 103 4 9 556 12 2718 12 l2713 0 28 -87z m9051 -20
c123 -367 412 -725 761 -941 113 -70 186 -105 287 -138 102 -33 93 0 72 -275
-131 -1652 -410 -3156 -851 -4592 l-49 -159 -35 6 c-265 46 -664 -22 -970
-166 -265 -124 -521 -335 -707 -583 -42 -55 -79 -101 -84 -103 -5 -2 -133 17
-286 42 -1124 184 -2387 317 -3426 362 l-157 7 -16 56 c-84 302 -242 562 -485
796 -203 195 -420 334 -649 416 l-105 37 -3 2050 -2 2051 71 21 c147 44 326
136 482 247 97 70 278 241 358 339 141 172 256 377 304 537 l28 97 2714 -2
2714 -3 34 -102z m8815 20 c0 -107 -25 -515 -45 -753 -260 -2999 -1344 -5823
-3161 -8238 -69 -92 -129 -166 -132 -165 -4 1 -108 47 -232 103 -982 445
-2154 888 -3177 1200 l-142 44 -7 45 c-54 398 -243 800 -494 1052 -52 53 -114
111 -137 130 l-42 34 35 105 c381 1154 688 2543 859 3891 54 424 77 663 131
1305 l5 71 92 28 c321 96 660 329 888 611 137 168 258 385 300 537 l24 87
2617 0 2618 0 0 -87z m-15885 -6327 c227 -62 425 -236 510 -445 53 -130 70
-325 40 -466 -20 -93 -89 -234 -157 -319 -61 -76 -166 -164 -237 -200 -179
-91 -443 -109 -626 -42 -266 96 -468 364 -500 661 -7 63 17 204 55 335 53 178
231 369 410 440 123 49 188 60 320 56 73 -2 150 -10 185 -20z m-7517 -917
c283 -31 504 -185 623 -434 58 -121 74 -190 73 -330 0 -198 -46 -332 -164
-478 -105 -131 -244 -223 -406 -269 -95 -26 -276 -31 -364 -9 -226 56 -421
215 -521 426 -75 156 -94 305 -61 465 34 166 92 282 195 396 98 107 256 198
401 229 77 17 104 17 224 4z m14814 -18 c291 -75 493 -295 563 -615 64 -291
-94 -636 -363 -796 -221 -130 -491 -143 -722 -34 -274 129 -440 394 -440 704
0 209 88 411 242 557 97 91 201 148 333 183 99 27 286 27 387 1z m-5320 -446
c868 -52 1664 -132 2493 -251 316 -45 685 -105 711 -114 19 -7 22 -19 27 -107
17 -280 136 -623 304 -878 82 -124 201 -265 273 -322 33 -26 60 -53 60 -59 0
-15 -207 -367 -363 -617 -494 -793 -1039 -1516 -1685 -2237 -214 -239 -844
-869 -1082 -1082 -590 -529 -1186 -988 -1786 -1376 -191 -123 -463 -290 -532
-326 l-32 -17 2 3107 3 3106 116 38 c125 41 164 59 279 128 367 221 666 573
790 930 l33 92 67 0 c38 0 182 -7 322 -15z m-3921 -102 c68 -207 208 -420 401
-610 123 -121 182 -170 307 -252 149 -98 248 -147 360 -180 58 -17 106 -33
108 -35 2 -1 2 -1399 1 -3105 l-3 -3103 -194 117 c-600 361 -1148 752 -1708
1218 -1388 1158 -2566 2565 -3500 4183 l-111 192 70 68 c174 169 307 370 399
601 40 101 85 280 93 368 13 140 8 131 79 144 1115 204 2318 356 3577 454 107
8 96 14 121 -60z m11126 -1244 c832 -274 1484 -520 2258 -851 193 -82 352
-151 354 -153 6 -7 -28 -48 -190 -223 -2014 -2177 -4586 -3755 -7429 -4559
-435 -123 -976 -248 -1430 -332 -248 -46 -611 -104 -616 -98 -2 2 36 32 84 68
1242 917 2469 2158 3454 3494 400 543 882 1286 1144 1763 l29 54 50 -6 c139
-17 362 -18 475 -2 308 45 591 158 845 338 188 134 421 388 520 568 21 39 42
70 46 70 4 0 187 -59 406 -131z m-18300 -72 c203 -303 555 -563 930 -687 278
-91 607 -125 828 -85 44 8 87 15 96 15 9 0 33 -32 59 -77 77 -139 365 -614
470 -778 634 -990 1394 -1949 2173 -2742 675 -687 1271 -1215 1917 -1698 137
-102 134 -98 75 -90 -433 59 -1098 192 -1610 321 -3017 763 -5793 2431 -7893
4743 -62 68 -109 128 -105 132 10 10 479 195 753 297 543 202 1185 420 1745
590 182 56 366 112 410 126 44 13 82 25 85 25 3 0 33 -41 67 -92z"/>
<path d="M31170 54470 c-314 -67 -577 -267 -720 -548 -16 -33 -260 -671 -541
-1418 -281 -748 -933 -2479 -1449 -3849 -516 -1369 -1070 -2839 -1230 -3265
-161 -426 -301 -809 -313 -850 -30 -110 -30 -381 1 -493 74 -268 221 -479 435
-621 163 -108 319 -160 532 -177 85 -6 1325 -9 3605 -7 l3475 4 85 21 c326 81
579 280 718 565 128 261 142 554 39 828 -441 1185 -3468 9207 -3493 9257 -114
234 -342 432 -598 519 -164 56 -381 70 -546 34z m1175 -6557 c527 -1402 960
-2554 963 -2560 3 -10 -387 -13 -1928 -13 -1541 0 -1931 3 -1928 13 134 366
1924 5107 1928 5107 4 0 438 -1146 965 -2547z"/>
<path d="M27810 25804 c-288 -25 -468 -50 -648 -90 -894 -200 -1533 -684
-1916 -1451 -307 -614 -446 -1421 -396 -2293 61 -1048 406 -1923 1094 -2775
299 -370 651 -727 1321 -1340 706 -646 1012 -960 1276 -1310 349 -462 538
-892 616 -1402 24 -158 24 -596 0 -751 -71 -453 -239 -724 -542 -874 -153 -76
-286 -106 -510 -115 -639 -24 -1019 234 -1160 787 -56 220 -58 255 -62 948
l-5 642 -1049 0 -1049 0 0 -566 c0 -585 6 -743 41 -1024 61 -492 175 -887 365
-1270 512 -1028 1503 -1560 2904 -1560 909 0 1645 224 2195 667 127 102 338
320 433 446 193 256 331 521 445 854 172 501 247 1040 234 1688 -6 286 -13
385 -43 600 -117 845 -455 1608 -1026 2322 -327 408 -641 727 -1418 1439 -659
603 -1022 984 -1276 1340 -423 594 -607 1201 -565 1865 49 767 333 1132 931
1200 125 14 340 7 456 -16 406 -78 653 -329 760 -772 48 -199 56 -290 61 -750
l5 -433 1049 0 1049 0 0 348 c0 355 -8 530 -36 777 -95 857 -393 1552 -874
2036 -455 457 -1057 722 -1850 815 -128 15 -699 27 -810 18z"/>
<path d="M55230 25804 c-288 -25 -468 -50 -648 -90 -894 -200 -1533 -684
-1916 -1451 -307 -614 -446 -1421 -396 -2293 61 -1048 406 -1923 1094 -2775
299 -370 651 -727 1321 -1340 706 -646 1012 -960 1276 -1310 349 -462 538
-892 616 -1402 24 -158 24 -596 0 -751 -71 -453 -239 -724 -542 -874 -153 -76
-286 -106 -510 -115 -639 -24 -1019 234 -1160 787 -56 220 -58 255 -62 948
l-5 642 -1049 0 -1049 0 0 -566 c0 -585 6 -743 41 -1024 61 -492 175 -887 365
-1270 512 -1028 1503 -1560 2904 -1560 909 0 1645 224 2195 667 127 102 338
320 433 446 193 256 331 521 445 854 172 501 247 1040 234 1688 -6 286 -13
385 -43 600 -117 845 -455 1608 -1026 2322 -327 408 -641 727 -1418 1439 -659
603 -1022 984 -1276 1340 -423 594 -607 1201 -565 1865 49 767 333 1132 931
1200 125 14 340 7 456 -16 406 -78 653 -329 760 -772 48 -199 56 -290 61 -750
l5 -433 1049 0 1049 0 0 348 c0 355 -8 530 -36 777 -95 857 -393 1552 -874
2036 -455 457 -1057 722 -1850 815 -128 15 -699 27 -810 18z"/>
<path d="M62780 25804 c-288 -25 -468 -50 -648 -90 -894 -200 -1533 -684
-1916 -1451 -307 -614 -446 -1421 -396 -2293 61 -1048 406 -1923 1094 -2775
299 -370 651 -727 1321 -1340 706 -646 1012 -960 1276 -1310 349 -462 538
-892 616 -1402 24 -158 24 -596 0 -751 -71 -453 -239 -724 -542 -874 -153 -76
-286 -106 -510 -115 -639 -24 -1019 234 -1160 787 -56 220 -58 255 -62 948
l-5 642 -1049 0 -1049 0 0 -566 c0 -585 6 -743 41 -1024 61 -492 175 -887 365
-1270 512 -1028 1503 -1560 2904 -1560 909 0 1645 224 2195 667 127 102 338
320 433 446 193 256 331 521 445 854 172 501 247 1040 234 1688 -6 286 -13
385 -43 600 -117 845 -455 1608 -1026 2322 -327 408 -641 727 -1418 1439 -659
603 -1022 984 -1276 1340 -423 594 -607 1201 -565 1865 49 767 333 1132 931
1200 125 14 340 7 456 -16 406 -78 653 -329 760 -772 48 -199 56 -290 61 -750
l5 -433 1049 0 1049 0 0 348 c0 355 -8 530 -36 777 -95 857 -393 1552 -874
2036 -455 457 -1057 722 -1850 815 -128 15 -699 27 -810 18z"/>
<path d="M8907 25643 c-4 -3 -7 -3183 -7 -7065 l0 -7059 1958 4 c1776 3 1970
4 2102 20 875 104 1495 368 1960 836 474 477 741 1113 832 1981 10 94 13 371
13 1110 0 1072 -1 1099 -61 1464 -148 905 -543 1540 -1198 1929 -111 65 -341
177 -365 177 -28 0 -3 19 85 64 250 127 500 325 676 536 389 464 590 1071 639
1923 13 237 6 1186 -10 1352 -42 420 -110 748 -214 1035 -218 599 -594 1037
-1130 1315 -409 212 -908 334 -1532 375 -177 11 -3737 15 -3748 3z m3480
-2024 c490 -54 771 -320 882 -833 43 -199 52 -319 58 -836 8 -706 -11 -982
-83 -1233 -57 -202 -155 -376 -282 -501 -155 -153 -333 -238 -612 -292 -71
-14 -180 -17 -652 -21 l-568 -5 0 1866 0 1866 580 0 c347 0 620 -4 677 -11z
m99 -5763 c312 -45 534 -145 695 -313 191 -197 296 -475 350 -923 16 -137 24
-1738 9 -1933 -46 -608 -247 -942 -645 -1076 -192 -64 -186 -64 -1012 -68
l-753 -4 0 2171 0 2172 623 -5 c505 -3 643 -7 733 -21z"/>
<path d="M17000 20143 c0 -3633 4 -5557 10 -5653 28 -387 78 -688 172 -1014
59 -205 119 -360 218 -561 143 -290 289 -497 503 -714 505 -511 1174 -786
2072 -852 200 -14 670 -6 855 15 827 96 1438 373 1912 864 520 540 808 1310
868 2322 6 104 10 2188 10 5633 l0 5467 -1050 0 -1050 0 0 -5487 c0 -3636 -3
-5534 -10 -5623 -20 -261 -66 -453 -150 -625 -175 -357 -505 -535 -992 -535
-593 1 -948 262 -1084 799 -13 52 -32 144 -41 205 -16 104 -18 480 -20 5689
l-3 5577 -1110 0 -1110 0 0 -5507z"/>
<path d="M32680 18585 l0 -7065 1110 0 1110 0 0 7065 0 7065 -1110 0 -1110 0
0 -7065z"/>
<path d="M36490 18585 l0 -7065 1000 0 1000 0 2 5099 3 5099 1376 -5097 1376
-5096 1141 -3 1142 -2 0 7065 0 7065 -990 0 -990 0 -2 -4212 -3 -4213 -1135
4213 -1135 4212 -1392 0 -1393 0 0 -7065z"/>
<path d="M45130 18585 l0 -7065 3030 0 3030 0 -2 1008 -3 1007 -1917 3 -1918
2 0 2065 0 2065 1525 0 1525 0 0 1010 0 1010 -1525 0 -1525 0 0 1970 0 1970
1920 0 1920 0 0 1010 0 1010 -3030 0 -3030 0 0 -7065z"/>
<path d="M6740 5668 l0 -3468 380 0 380 0 2 2500 3 2501 2423 -2620 c1333
-1441 2429 -2625 2437 -2631 13 -11 15 421 15 3454 l0 3466 -385 0 -385 0 -2
-2525 -3 -2525 -2400 2621 c-1320 1441 -2414 2637 -2432 2657 l-32 37 -1
-3467z"/>
<path d="M1506 5667 c-828 -1900 -1506 -3457 -1506 -3460 0 -4 194 -6 430 -5
l431 3 431 1018 432 1017 1300 0 1301 0 431 -1018 431 -1017 432 -3 c382 -2
433 0 427 13 -34 90 -3022 6905 -3026 6905 -4 0 -685 -1554 -1514 -3453z
m2044 475 l526 -1217 -528 -3 c-290 -1 -766 -1 -1057 0 l-528 3 526 1218 c289
669 528 1217 531 1217 3 0 241 -548 530 -1218z"/>
<path d="M14566 5667 c-828 -1900 -1506 -3457 -1506 -3460 0 -4 194 -6 430 -5
l431 3 431 1018 432 1017 1300 0 1301 0 431 -1018 431 -1017 432 -3 c382 -2
433 0 427 13 -34 90 -3022 6905 -3026 6905 -4 0 -685 -1554 -1514 -3453z
m2044 475 l526 -1217 -528 -3 c-290 -1 -766 -1 -1057 0 l-528 3 526 1218 c289
669 528 1217 531 1217 3 0 241 -548 530 -1218z"/>
<path d="M59896 5667 c-828 -1900 -1506 -3457 -1506 -3460 0 -4 194 -6 430 -5
l431 3 431 1018 432 1017 1300 0 1301 0 431 -1018 431 -1017 432 -3 c382 -2
433 0 427 13 -34 90 -3022 6905 -3026 6905 -4 0 -685 -1554 -1514 -3453z
m2044 475 l526 -1217 -528 -3 c-290 -1 -766 -1 -1057 0 l-528 3 526 1218 c289
669 528 1217 531 1217 3 0 241 -548 530 -1218z"/>
<path d="M69256 5667 c-828 -1900 -1506 -3457 -1506 -3460 0 -4 194 -6 430 -5
l431 3 431 1018 432 1017 1300 0 1301 0 431 -1018 431 -1017 432 -3 c382 -2
433 0 427 13 -34 90 -3022 6905 -3026 6905 -4 0 -685 -1554 -1514 -3453z
m2044 475 l526 -1217 -528 -3 c-290 -1 -766 -1 -1057 0 l-528 3 526 1218 c289
669 528 1217 531 1217 3 0 241 -548 530 -1218z"/>
<path d="M27890 9024 c-14 -2 -65 -9 -115 -15 -681 -82 -1262 -521 -1456
-1099 -64 -193 -74 -260 -73 -535 0 -233 2 -259 27 -376 50 -237 143 -456 270
-636 79 -112 274 -308 398 -401 228 -169 353 -233 1009 -512 519 -221 560
-240 718 -334 401 -239 640 -555 708 -939 22 -124 21 -352 -1 -481 -84 -485
-439 -845 -945 -957 -225 -50 -510 -47 -718 7 -446 116 -777 496 -938 1080
-15 54 -29 100 -30 102 -1 2 -714 -344 -720 -351 -2 -1 10 -48 26 -102 247
-844 873 -1353 1764 -1436 254 -23 604 -2 851 52 581 128 1059 490 1319 998
204 400 272 969 170 1430 -52 233 -149 452 -282 641 -80 113 -285 323 -399
408 -221 167 -328 221 -1068 547 -308 135 -607 271 -664 301 -321 169 -543
386 -632 619 -51 132 -63 203 -62 375 0 133 4 169 26 251 71 271 261 494 522
615 234 108 568 121 830 32 259 -88 515 -314 705 -623 24 -38 46 -74 50 -78 6
-7 614 376 648 408 12 10 6 27 -34 96 -302 535 -785 843 -1423 908 -95 10
-423 13 -481 5z"/>
<path d="M41265 9019 c-860 -78 -1577 -410 -2175 -1009 -394 -393 -661 -819
-825 -1315 -193 -585 -234 -1306 -110 -1920 57 -280 144 -541 261 -785 184
-380 353 -618 654 -921 209 -210 336 -315 560 -464 372 -248 739 -406 1170
-503 289 -66 511 -86 845 -79 565 13 1061 131 1554 368 200 97 285 145 464
263 l137 90 0 529 0 529 -77 -84 c-340 -366 -701 -623 -1103 -781 -576 -227
-1258 -245 -1855 -50 -395 129 -750 349 -1056 653 -436 435 -667 889 -759
1495 -31 199 -38 601 -16 815 72 677 343 1239 820 1697 540 519 1290 789 2036
734 410 -31 726 -113 1055 -276 292 -143 539 -322 807 -584 l148 -144 0 517 0
516 -42 31 c-95 68 -312 198 -473 280 -401 206 -769 322 -1225 385 -137 18
-643 27 -795 13z"/>
<path d="M46580 9024 c-14 -2 -65 -9 -115 -15 -681 -82 -1262 -521 -1456
-1099 -64 -193 -74 -260 -73 -535 0 -233 2 -259 27 -376 50 -237 143 -456 270
-636 79 -112 274 -308 398 -401 228 -169 353 -233 1009 -512 519 -221 560
-240 718 -334 401 -239 640 -555 708 -939 22 -124 21 -352 -1 -481 -84 -485
-439 -845 -945 -957 -225 -50 -510 -47 -718 7 -446 116 -777 496 -938 1080
-15 54 -29 100 -30 102 -1 2 -714 -344 -720 -351 -2 -1 10 -48 26 -102 247
-844 873 -1353 1764 -1436 254 -23 604 -2 851 52 581 128 1059 490 1319 998
204 400 272 969 170 1430 -52 233 -149 452 -282 641 -80 113 -285 323 -399
408 -221 167 -328 221 -1068 547 -308 135 -607 271 -664 301 -321 169 -543
386 -632 619 -51 132 -63 203 -62 375 0 133 4 169 26 251 71 271 261 494 522
615 234 108 568 121 830 32 259 -88 515 -314 705 -623 24 -38 46 -74 50 -78 6
-7 614 376 648 408 12 10 6 27 -34 96 -302 535 -785 843 -1423 908 -95 10
-423 13 -481 5z"/>
<path d="M19790 5535 l0 -3335 1655 0 1655 0 0 380 0 380 -1255 0 -1255 0 0
2955 0 2955 -400 0 -400 0 0 -3335z"/>
<path d="M24060 5535 l0 -3335 400 0 400 0 0 3335 0 3335 -400 0 -400 0 0
-3335z"/>
<path d="M30530 8490 l0 -380 940 0 940 0 0 -2955 0 -2955 405 0 405 0 0 2955
0 2955 940 0 940 0 0 380 0 380 -2285 0 -2285 0 0 -380z"/>
<path d="M35990 5535 l0 -3335 400 0 400 0 0 3335 0 3335 -400 0 -400 0 0
-3335z"/>
<path d="M52700 5536 l0 -3336 993 0 c1182 0 1519 12 1936 71 617 86 1074 290
1523 678 562 484 909 1223 992 2111 78 828 -46 1618 -349 2220 -330 656 -881
1142 -1555 1372 -323 110 -616 156 -1255 199 -101 7 -602 13 -1227 16 l-1058
5 0 -3336z m2155 2584 c668 -37 974 -96 1295 -251 220 -106 386 -233 564 -430
346 -383 550 -905 605 -1544 6 -66 11 -223 11 -350 0 -251 -10 -399 -41 -602
-113 -749 -494 -1374 -1019 -1673 -229 -130 -498 -214 -820 -254 -331 -41
-624 -55 -1352 -63 l-598 -6 0 2598 0 2598 588 -6 c323 -4 668 -11 767 -17z"/>
<path d="M63890 8490 l0 -380 940 0 940 0 0 -2955 0 -2955 405 0 405 0 0 2955
0 2955 940 0 940 0 0 380 0 380 -2285 0 -2285 0 0 -380z"/>
</g>
</svg>
